<?xml version="1.0" encoding="UTF-8" standalone="no"?>
<svg
   width="1080"
   zoomAndPan="magnify"
   viewBox="0 0 810 809.999993"
   height="1080"
   preserveAspectRatio="xMidYMid meet"
   version="1.0"
   id="svg39"
   sodipodi:docname="track.svg"
   inkscape:version="1.4 (1:1.4+202410161351+e7c3feb100)"
   xmlns:inkscape="http://www.inkscape.org/namespaces/inkscape"
   xmlns:sodipodi="http://sodipodi.sourceforge.net/DTD/sodipodi-0.dtd"
   xmlns="http://www.w3.org/2000/svg"
   xmlns:svg="http://www.w3.org/2000/svg">
  <sodipodi:namedview
     id="namedview39"
     pagecolor="#ffffff"
     bordercolor="#000000"
     borderopacity="0.25"
     inkscape:showpageshadow="2"
     inkscape:pageopacity="0.0"
     inkscape:pagecheckerboard="0"
     inkscape:deskcolor="#d1d1d1"
     inkscape:zoom="0.53055556"
     inkscape:cx="540.94241"
     inkscape:cy="540.94241"
     inkscape:window-width="2560"
     inkscape:window-height="1348"
     inkscape:window-x="2560"
     inkscape:window-y="0"
     inkscape:window-maximized="1"
     inkscape:current-layer="svg39" />
  <defs
     id="defs2">
    <g
       id="g1" />
    <clipPath
       id="b9232dda7b">
      <path
         d="M 130.230469 275 L 226 275 L 226 286 L 130.230469 286 Z M 130.230469 275 "
         clip-rule="nonzero"
         id="path1" />
    </clipPath>
    <clipPath
       id="57b2075c3b">
      <path
         d="M 135 508 L 229.230469 508 L 229.230469 519 L 135 519 Z M 135 508 "
         clip-rule="nonzero"
         id="path2" />
    </clipPath>
  </defs>
  <g
     id="g40"
     transform="matrix(0.23532206,0,0,0.23532206,332.83044,256.56264)"
     inkscape:export-filename="track.png"
     inkscape:export-xdpi="600"
     inkscape:export-ydpi="600">
    <path
       fill="#385057"
       d="m 165.28906,433.70703 c -4.22265,0 -7.64453,3.41797 -7.64453,7.63281 0,4.22266 3.42188,7.64844 7.64453,7.64844 3.41797,0 6.31641,-2.24609 7.28906,-5.35156 1.83594,0.0547 4.69922,0.26562 8.39454,0.89844 0.6289,0.11328 1.27734,0.22265 1.95312,0.36718 l 0.004,0.0156 c 4.46875,0.89844 7.76172,1.95703 9.79687,2.71484 0.21485,1.17969 1.2461,2.06641 2.49219,2.06641 1.39844,0 2.53516,-1.13281 2.53516,-2.52344 0,-1.40234 -1.13672,-2.53906 -2.53516,-2.53906 -0.82422,0 -1.55859,0.39062 -2.01953,1 -2.17188,-0.0742 -5.60547,-0.35547 -10.03906,-1.2461 v -0.0117 c -0.69922,-0.14063 -1.3711,-0.28907 -2.01172,-0.4336 -3.7461,-0.86719 -6.51563,-1.80078 -8.22657,-2.45703 0,-0.0469 0.004,-0.0898 0.004,-0.14844 0,-4.21484 -3.41797,-7.63281 -7.63672,-7.63281"
       fill-opacity="1"
       fill-rule="nonzero"
       id="path3" />
    <path
       fill="#385057"
       d="m 144.14453,502.28516 c 1.58594,0 2.95313,-0.90625 3.62109,-2.22657 4.61719,-0.41406 14.42579,-1.11328 28.73438,-1.27343 1.98437,-0.0234 4.05859,-0.0312 6.22266,-0.0312 l 0.004,-0.0234 c 15.3125,0.0117 26.48047,0.66797 32.62891,1.15234 0.76562,2.17578 2.83594,3.75 5.27734,3.75 3.08985,0 5.59766,-2.50781 5.59766,-5.60156 0,-3.08203 -2.50781,-5.58984 -5.59766,-5.58984 -2.69922,0 -4.94922,1.90625 -5.47656,4.44921 -6.04688,0.48047 -17.19141,1.12891 -32.75,1.12891 l -0.008,0.0234 c -2.15625,0 -4.23438,-0.0117 -6.22657,-0.043 -13.70312,-0.17188 -23.39453,-0.85156 -28.26562,-1.27344 -0.60156,-1.48437 -2.05859,-2.54297 -3.76172,-2.54297 -2.23828,0 -4.04687,1.82032 -4.04687,4.05078 0,2.24219 1.80859,4.05079 4.04687,4.05079"
       fill-opacity="1"
       fill-rule="nonzero"
       id="path4" />
    <path
       fill="#385057"
       d="m 149.80859,489.07031 c 1.29297,0 2.42578,-0.70312 3.03125,-1.75 3.05469,-0.5 9.64453,-1.44531 19.35547,-2.09375 2.17188,-0.14453 4.5,-0.27344 6.98438,-0.38281 l 0.004,-0.0195 c 12.875,-0.54688 21.85547,-0.10938 25.96875,0.19531 0.85547,2.36719 3.11328,4.05078 5.77344,4.05078 3.39063,0 6.13281,-2.75 6.13281,-6.1289 0,-3.39063 -2.74218,-6.14063 -6.13281,-6.14063 -2.95703,0 -5.42578,2.09766 -6.00391,4.88281 -3.92578,0.64063 -12.82812,1.86719 -26.01171,2.44532 v 0.0195 c -2.44532,0.0976 -4.7461,0.16015 -6.90625,0.20703 -9.22266,0.17187 -15.76172,-0.17578 -19.08985,-0.42578 -0.58594,-1.11719 -1.7539,-1.87891 -3.10547,-1.87891 -1.9375,0 -3.50781,1.57422 -3.50781,3.51172 0,1.93359 1.57031,3.50781 3.50781,3.50781"
       fill-opacity="1"
       fill-rule="nonzero"
       id="path5" />
    <g
       clip-path="url(#b9232dda7b)"
       id="g6">
      <path
         fill="#385057"
         d="m 140.26172,281.71484 c 4.30469,-0.34765 16.01953,-1.16015 33.55859,-1.20703 1.39063,0 2.81641,0 4.27735,0.0117 l 0.008,-0.0273 c 18.97656,0.10937 32.02344,1.14062 37.26172,1.63672 0.75,1.90234 2.59765,3.24218 4.76562,3.24218 2.83203,0 5.125,-2.28515 5.125,-5.11718 0,-2.83204 -2.29297,-5.1211 -5.125,-5.1211 -2.2539,0 -4.16406,1.45313 -4.84765,3.48438 -4.88672,0.41406 -17.75782,1.29687 -37.54688,1.16406 l -0.008,0.0234 c -1.33203,-0.0117 -2.63672,-0.0234 -3.90625,-0.0391 -17.53125,-0.22656 -29.34375,-1.20703 -33.81641,-1.65625 -0.8125,-1.7539 -2.58594,-2.97656 -4.65234,-2.97656 -2.82813,0 -5.125,2.28906 -5.125,5.1211 0,2.83203 2.29687,5.11718 5.125,5.11718 2.32031,0 4.27734,-1.53515 4.90625,-3.65625"
         fill-opacity="1"
         fill-rule="nonzero"
         id="path6" />
    </g>
    <path
       fill="#385057"
       d="m 139.0625,302.23828 c 2.66797,0 4.91797,-1.78906 5.62891,-4.22656 4.3789,-0.42188 15.01953,-1.3086 30.61718,-1.52735 1.1836,-0.0234 2.39453,-0.0351 3.63282,-0.0351 l 0.004,-0.0234 c 17.6211,-0.0937 29.70703,0.79297 34.44531,1.22656 0.69922,1.21094 2.00782,2.02735 3.50782,2.02735 2.23828,0 4.05078,-1.8125 4.05078,-4.04688 0,-2.24609 -1.8125,-4.05859 -4.05078,-4.05859 -1.70703,0 -3.16407,1.05469 -3.76172,2.55859 -4.4961,0.46485 -16.32813,1.48828 -34.53516,1.58594 l -0.004,0.0234 c -1.16407,0 -2.30469,0 -3.42188,0 -15.30078,-0.0234 -25.90625,-0.78125 -30.53906,-1.20313 -0.76953,-2.33984 -2.97266,-4.03515 -5.57422,-4.03515 -3.23828,0 -5.86328,2.6289 -5.86328,5.85937 0,3.24609 2.625,5.875 5.86328,5.875"
       fill-opacity="1"
       fill-rule="nonzero"
       id="path7" />
    <path
       fill="#385057"
       d="m 211.23437,304.79297 c -1.4375,0 -2.66796,0.87109 -3.21093,2.09765 -3.7461,0.6211 -12.87891,1.91797 -26.75782,2.51563 l -0.004,0.0117 c -0.82813,0.0351 -1.64453,0.0742 -2.44531,0.0976 -11.59766,0.40235 -19.82422,0 -23.75782,-0.28515 -0.91797,-2.58985 -3.38672,-4.4375 -6.28515,-4.4375 -3.6875,0 -6.67578,2.99219 -6.67578,6.67578 0,3.68359 2.98828,6.67578 6.67578,6.67578 3.3125,0 6.0625,-2.41797 6.58203,-5.58984 3.80469,-0.59766 11.98828,-1.69532 23.72265,-2.3125 0.8125,-0.0391 1.64063,-0.0859 2.48438,-0.1211 v -0.0234 c 13.47656,-0.58204 22.86328,-0.0703 26.8125,0.22656 0.63281,0.89453 1.67578,1.49219 2.85937,1.49219 1.94141,0 3.51172,-1.57422 3.51172,-3.51954 0,-1.92968 -1.57031,-3.5039 -3.51172,-3.5039"
       fill-opacity="1"
       fill-rule="nonzero"
       id="path8" />
    <path
       fill="#385057"
       d="m 202.33594,315.98047 c -1.20313,0 -2.23047,0.75 -2.64063,1.8164 -2.32422,0.83985 -7.51953,2.5 -15.39844,3.71875 -0.008,0.0156 -0.0156,0.0156 -0.0273,0.0156 v 0.008 c -8.60156,1.36328 -14.50781,1.22266 -16.54687,1.10547 -1.27344,-2.58594 -3.9375,-4.375 -7.01954,-4.375 -4.32031,0 -7.82031,3.50781 -7.82031,7.82422 0,4.3125 3.5,7.82031 7.82031,7.82031 4.28907,0 7.76563,-3.44531 7.81641,-7.72656 1.94141,-0.72266 7.48438,-2.59766 16.01953,-3.96094 v -0.0195 c 0.0469,-0.0156 0.0898,-0.0156 0.13672,-0.0234 7.90625,-1.23437 13.53516,-1.21093 15.94141,-1.11718 0.47656,0.36718 1.07422,0.58203 1.71875,0.58203 1.5664,0 2.83593,-1.26953 2.83593,-2.83594 0,-1.5625 -1.26953,-2.83203 -2.83593,-2.83203"
       fill-opacity="1"
       fill-rule="nonzero"
       id="path9" />
    <path
       fill="#385057"
       d="m 139.94141,400.63281 c 1.69531,0 3.19531,-0.83203 4.1289,-2.09765 3.26563,0.44531 15.53516,2.29296 34.82031,7.04687 l 0.0117,-0.0117 c 2.46094,0.60547 4.80078,1.20703 7.01563,1.78516 14.32812,3.78515 23.51953,6.94531 26.72656,8.09765 0.50391,1.66016 2.04688,2.86719 3.875,2.86719 2.23828,0 4.05078,-1.80859 4.05078,-4.04297 0,-2.23437 -1.8125,-4.05859 -4.05078,-4.05859 -1.30469,0 -2.46484,0.625 -3.20312,1.58203 -3.16407,-0.42969 -12.69141,-1.89062 -27.40235,-5.28516 -2.25781,-0.52343 -4.64062,-1.09375 -7.14062,-1.71093 l -0.0117,0.0234 c -18.33594,-4.54687 -30.02344,-8.55859 -33.73438,-9.90625 -0.28906,-2.55078 -2.45312,-4.53515 -5.08593,-4.53515 -2.83204,0 -5.125,2.29297 -5.125,5.11719 0,2.83984 2.29296,5.1289 5.125,5.1289"
       fill-opacity="1"
       fill-rule="nonzero"
       id="path10" />
    <path
       fill="#385057"
       d="m 143.64844,405.75 c -3.23828,0 -5.86328,2.62109 -5.86328,5.86719 0,3.23047 2.625,5.86328 5.86328,5.86328 1.85937,0 3.51953,-0.8711 4.59375,-2.22266 4.30859,0.44922 14.5,1.73828 29.40625,4.91406 l 0.008,-0.0117 c 2.70703,0.57812 5.24609,1.15234 7.61719,1.70703 11.76172,2.78125 19.39843,5.22265 22.25781,6.18359 0.46094,1.39063 1.77734,2.39844 3.32812,2.39844 1.9336,0 3.50782,-1.57422 3.50782,-3.50781 0,-1.92969 -1.57422,-3.50391 -3.50782,-3.50391 -0.96484,0 -1.83203,0.38672 -2.46875,1.00781 -2.54687,-0.22656 -10.55859,-1.07422 -23.03515,-3.45703 -2.4375,-0.46484 -5.04297,-0.98437 -7.81641,-1.58594 l -0.008,0.0234 c -13.86328,-2.97266 -23.45313,-5.83203 -28.03906,-7.3125 0.0117,-0.16016 0.0195,-0.32812 0.0195,-0.49609 0,-3.2461 -2.625,-5.86719 -5.86328,-5.86719"
       fill-opacity="1"
       fill-rule="nonzero"
       id="path11" />
    <path
       fill="#385057"
       d="m 153.35547,420.04687 c -3.6875,0 -6.67188,2.98438 -6.67188,6.67579 0,3.6875 2.98438,6.67187 6.67188,6.67187 2.48828,0 4.66015,-1.36719 5.80859,-3.38672 3.20703,0.21094 10.48438,0.91016 20.98828,3.14063 l 0.008,-0.0117 c 1.17968,0.24609 2.3125,0.5039 3.40234,0.76172 7.32812,1.70703 12.64453,3.41015 15.71875,4.5 0.38672,1.10937 1.4375,1.90625 2.67969,1.90625 1.5625,0 2.83203,-1.26953 2.83203,-2.83985 0,-1.55859 -1.26953,-2.83593 -2.83203,-2.83593 -0.77344,0 -1.47657,0.3164 -1.98828,0.82031 -3.14844,-0.25 -8.69922,-0.85156 -16.26172,-2.32422 -1.15625,-0.21484 -2.35157,-0.46094 -3.59375,-0.72656 l -0.008,0.0195 c -10.0039,-2.14063 -16.84765,-4.42969 -20.08203,-5.61719 0,-0.0234 0,-0.0586 0,-0.0781 0,-3.69141 -2.98437,-6.67579 -6.67187,-6.67579"
       fill-opacity="1"
       fill-rule="nonzero"
       id="path12" />
    <g
       clip-path="url(#57b2075c3b)"
       id="g13">
      <path
         fill="#385057"
         d="m 224.33984,508.48828 c -2.11328,0 -3.92578,1.28125 -4.71093,3.10547 -3.06641,0.32031 -15.34375,1.46094 -35.26172,1.52734 -0.64844,0.008 -1.30078,0.008 -1.96094,0.008 l -0.008,0.0117 c -19.875,-0.0117 -32.77344,-1.12109 -36.76563,-1.52343 -0.77734,-1.83594 -2.60156,-3.12891 -4.72265,-3.12891 -2.82813,0 -5.125,2.29297 -5.125,5.12109 0,2.83204 2.29687,5.125 5.125,5.125 2.21875,0 4.10156,-1.41015 4.8125,-3.38281 3.53125,-0.36328 16.39843,-1.49609 37,-1.49609 l 0.004,-0.0195 c 0.73047,0 1.44922,0 2.15625,0.0117 18.70703,0.082 30.83203,1.1289 34.64453,1.5039 0.71094,1.97266 2.59375,3.38281 4.8125,3.38281 2.83203,0 5.125,-2.29296 5.125,-5.125 0,-2.82812 -2.29297,-5.12109 -5.125,-5.12109"
         fill-opacity="1"
         fill-rule="nonzero"
         id="path13" />
    </g>
    <path
       fill="#385057"
       d="m 139.125,380.14062 c 0,2.24219 1.8125,4.04297 4.05078,4.04297 1.21094,0 2.29297,-0.52734 3.03516,-1.36328 4.66015,0.69922 16.60547,2.6836 34.36328,7.07422 l 0.008,-0.0234 c 1.53125,0.37891 3.01563,0.75782 4.45703,1.125 15.60156,4.01953 25.8086,7.44141 29.67969,8.8086 0.42578,2.40234 2.51562,4.22656 5.03906,4.22656 2.82813,0 5.1211,-2.29688 5.1211,-5.13281 0,-2.82813 -2.29297,-5.125 -5.1211,-5.125 -1.85937,0 -3.48047,1 -4.3789,2.48437 -3.85547,-0.5664 -14.42579,-2.25 -30.42188,-6.05078 -1.46094,-0.34766 -2.96094,-0.71484 -4.50781,-1.09375 l -0.0117,0.0117 c -17.00781,-4.20313 -28.4375,-7.95703 -33.26953,-9.63672 -0.3125,-1.92969 -1.98047,-3.39844 -3.99219,-3.39844 -2.23828,0 -4.05078,1.8125 -4.05078,4.05078"
       fill-opacity="1"
       fill-rule="nonzero"
       id="path14" />
    <path
       fill="#385057"
       d="m 148.83984,363.94922 c -1.9375,0 -3.51172,1.57031 -3.51172,3.51172 0,1.93359 1.57422,3.5039 3.51172,3.5039 1.01563,0 1.92188,-0.42968 2.56641,-1.12109 4.38281,0.56641 14.64844,2.11328 29.62109,5.67578 l 0.008,-0.0234 c 0.62109,0.15235 1.23828,0.30078 1.84375,0.44922 14.0664,3.42188 23.46484,6.53516 27.40625,7.92969 0.51171,2.71875 2.89843,4.77734 5.76562,4.77734 3.23828,0 5.86328,-2.625 5.86328,-5.86328 0,-3.24609 -2.625,-5.87109 -5.86328,-5.87109 -2.39844,0 -4.46094,1.44531 -5.37109,3.5039 -4.14063,-0.53515 -13.8125,-1.96484 -27.94532,-5.25 -0.59375,-0.13671 -1.19531,-0.27734 -1.80078,-0.42578 l -0.0117,0.0234 c -14.44921,-3.44531 -24.27343,-6.64844 -28.6914,-8.19922 -0.39453,-1.51562 -1.76172,-2.62109 -3.39063,-2.62109"
       fill-opacity="1"
       fill-rule="nonzero"
       id="path15" />
    <path
       fill="#385057"
       d="m 157.73828,354.10937 c -1.56641,0 -2.83594,1.26563 -2.83594,2.83204 0,1.57031 1.26953,2.83593 2.83594,2.83593 0.67969,0 1.30859,-0.24218 1.79688,-0.63672 3.11718,0.26563 10.21484,1.08985 20.43359,3.4961 0.082,0.0234 0.16797,0.0469 0.25391,0.0586 l 0.008,-0.0117 c 9.625,2.28907 16.25781,4.66016 19.5039,5.92578 0.44532,3.25391 3.23438,5.75391 6.60938,5.75391 3.68359,0 6.67187,-2.98828 6.67187,-6.67187 0,-3.69141 -2.98828,-6.67969 -6.67187,-6.67969 -2.89453,0 -5.35547,1.84765 -6.28125,4.41406 -3.48438,-0.33594 -10.33203,-1.21875 -19.85156,-3.47266 l -0.0117,0.0117 c -0.14453,-0.0351 -0.28516,-0.0703 -0.42969,-0.10547 -9.73047,-2.34765 -16.33984,-4.74218 -19.39844,-5.96093 -0.42187,-1.04688 -1.4375,-1.78907 -2.63281,-1.78907"
       fill-opacity="1"
       fill-rule="nonzero"
       id="path16" />
    <path
       fill="#385057"
       d="m 164.47656,344.70312 c -1.39844,0 -2.53515,1.13282 -2.53515,2.53125 0,1.40235 1.13671,2.53516 2.53515,2.53516 0.73438,0 1.39063,-0.3125 1.85156,-0.80469 2.20704,0.0937 5.48438,0.4336 9.625,1.41016 l 0.004,-0.008 c 0.19531,0.0469 0.39063,0.0898 0.58203,0.14062 4.97656,1.23828 8.38672,2.76563 10.13281,3.66406 0.53516,3.79688 3.79688,6.70313 7.73829,6.70313 4.3164,0 7.8164,-3.49219 7.8164,-7.8125 0,-4.32031 -3.5,-7.82422 -7.8164,-7.82422 -3.63672,0 -6.69141,2.48828 -7.56641,5.85156 -2.07422,-0.0234 -5.71484,-0.25781 -10.55078,-1.3789 -0.0937,-0.0234 -0.1836,-0.0469 -0.27735,-0.0586 l -0.004,0.0117 c -4.00781,-0.95703 -7.04688,-2.125 -9.07422,-3.03515 -0.27344,-1.10938 -1.26953,-1.92579 -2.46094,-1.92579"
       fill-opacity="1"
       fill-rule="nonzero"
       id="path17" />
    <path
       fill="#385057"
       d="m 180.65625,329.19531 c -4.72656,0 -8.55859,3.83203 -8.55859,8.5625 0,4.72656 3.83203,8.5586 8.55859,8.5586 4.73047,0 8.5625,-3.83204 8.5625,-8.5586 0,-1.26562 -0.27734,-2.46875 -0.76563,-3.53906 0.6211,-0.71875 1.48047,-1.5 2.63672,-2.23047 l -0.008,-0.0234 c 0.0977,-0.0586 0.19922,-0.11718 0.29688,-0.17578 1.00781,-0.58984 1.95312,-0.95312 2.77343,-1.1914 0.40625,0.29296 0.90625,0.46093 1.44141,0.46093 1.40234,0 2.53516,-1.13281 2.53516,-2.53906 0,-1.40234 -1.13282,-2.53516 -2.53516,-2.53516 -1.39844,0 -2.53125,1.13282 -2.53125,2.53516 0,0.27344 0.043,0.53125 0.11719,0.76953 -0.5625,0.625 -1.30469,1.3086 -2.26953,1.94531 -0.082,0.0469 -0.16016,0.10547 -0.25,0.16407 l 0.0117,0.0156 c -1.10937,0.69141 -2.15625,1.10547 -3.05078,1.36328 -1.55468,-2.16797 -4.09375,-3.58203 -6.96484,-3.58203"
       fill-opacity="1"
       fill-rule="nonzero"
       id="path18" />
    <path
       fill="#385057"
       d="m 192.63672,471.94141 c 1.26172,2.20312 3.63281,3.69531 6.35547,3.69531 4.04297,0 7.3164,-3.28125 7.3164,-7.32422 0,-4.03906 -3.27343,-7.31641 -7.3164,-7.31641 -4.03907,0 -7.31641,3.27735 -7.31641,7.31641 0,0.043 0.004,0.0781 0.004,0.11719 -2.02735,0.73437 -7.42969,2.48047 -15.76563,3.69531 v 0.0117 c -2.01953,0.28515 -3.88672,0.49219 -5.58594,0.64844 -4.3789,0.38281 -7.65625,0.36328 -9.60156,0.28515 -0.51172,-0.52734 -1.23047,-0.85547 -2.01953,-0.85547 -1.56641,0 -2.83594,1.27344 -2.83594,2.83985 0,1.5664 1.26953,2.82812 2.83594,2.82812 1.17578,0 2.18359,-0.71094 2.61328,-1.73437 1.79688,-0.60157 4.85547,-1.5 9.09766,-2.35547 1.71094,-0.33985 3.60937,-0.66797 5.70312,-0.97656 v -0.008 c 8.73828,-1.2539 14.60547,-1.01172 16.51563,-0.86718"
       fill-opacity="1"
       fill-rule="nonzero"
       id="path19" />
    <path
       fill="#385057"
       d="m 174.07031,461.84375 c 1.57031,1.88672 3.9375,3.09375 6.58594,3.09375 4.73047,0 8.5625,-3.83594 8.5625,-8.5625 0,-4.72656 -3.83203,-8.55859 -8.5625,-8.55859 -4.72656,0 -8.55859,3.83203 -8.55859,8.55859 0,1.22656 0.25781,2.39844 0.72656,3.44531 -0.57031,0.74219 -1.44531,1.63672 -2.72656,2.46485 -0.17188,0.11328 -0.34375,0.21093 -0.52735,0.32031 l 0.008,0.0117 c -0.8125,0.45312 -1.58984,0.77343 -2.29296,0.98047 -0.46094,-0.48438 -1.11329,-0.79297 -1.83594,-0.79297 -1.40235,0 -2.53516,1.14062 -2.53516,2.53906 0,1.39453 1.13281,2.53125 2.53516,2.53125 1.39844,0 2.53515,-1.13672 2.53515,-2.53125 0,-0.23047 -0.0352,-0.44141 -0.0859,-0.64844 0.55078,-0.5 1.22656,-1.00781 2.05859,-1.48047 l -0.008,-0.0117 c 0.0391,-0.0351 0.082,-0.0547 0.125,-0.0781 1.55469,-0.83984 2.96875,-1.17188 3.99609,-1.28125"
       fill-opacity="1"
       fill-rule="nonzero"
       id="path20" />
    <path
       stroke-linecap="butt"
       transform="matrix(0.676295,0,0,0.676295,117.19543,277.18114)"
       fill="none"
       stroke-linejoin="miter"
       d="m 142.91422,63.308067 h 43.94344 L 129.98764,331.9996 H 176.4494 L 233.31942,63.308067 h 43.94345 L 287.56139,15.477405 H 153.21852 Z M 312.94093,331.9996 h 46.5715 l 2.51832,-153.2649 c 10.09636,-6.03009 18.64477,-15.56042 25.651,-28.59674 7.01201,-13.10564 12.26813,-27.53974 15.76835,-43.30809 6.30734,-30.138921 4.83448,-52.878846 -4.41282,-68.225551 C 389.85351,23.188302 371.35314,15.477405 343.53037,15.477405 H 297.06861 L 229.89428,331.9996 h 46.46177 l 27.96716,-133.50537 h 12.50493 z m 0.94726,-176.50156 19.75953,-93.870775 c 3.15367,0 6.65967,0.277246 10.51223,0.837513 3.92765,0.560268 7.32391,2.420124 10.20033,5.573794 2.87065,3.15367 4.79982,7.884175 5.78173,14.191516 0.98191,6.30734 0.3119,15.069459 -1.99848,26.280582 -2.24107,11.21113 -5.32543,19.90393 -9.25307,26.07265 -3.85256,6.16294 -7.77444,10.82413 -11.77139,13.9778 -4.06627,3.15367 -8.1672,5.1175 -12.29701,5.8857 -4.13558,0.70467 -7.7802,1.05122 -10.93387,1.05122 z m 49.90422,176.50156 h 45.20261 l 21.97172,-64.54627 h 44.78096 l -4.7305,64.54627 h 45.2026 L 535.56346,15.477405 H 478.7974 Z m 124.04436,-213.60627 -7.78021,99.97018 h -31.85438 l 34.37847,-99.97018 3.0497,-8.09789 h 2.62806 z m 185.11927,105.12233 h -43.5218 l -9.03936,43.51602 c -0.56027,2.5241 -1.29959,4.73629 -2.21219,6.62502 -0.83752,1.89452 -1.53641,3.54066 -2.10245,4.93844 -1.6808,3.15367 -3.95653,5.89147 -6.83295,8.20185 -2.87065,2.31039 -6.75787,3.47135 -11.66742,3.47135 -3.71394,0 -6.44597,-1.16096 -8.19608,-3.47135 -3.43669,-4.62653 -4.4186,-11.21112 -2.94574,-19.76531 L 625.96289,80.549285 c 0.62958,-2.316157 1.36891,-4.453259 2.20642,-6.411307 0.84329,-2.033135 1.54218,-3.789025 2.10245,-5.256117 1.75588,-2.876424 3.99696,-5.504482 6.72898,-7.884175 2.73203,-2.454779 6.09941,-3.679281 10.09059,-3.679281 4.90956,0 8.20185,1.15519 9.88265,3.465571 3.78325,4.557227 4.79982,11.141812 3.04971,19.765309 l -9.46101,43.521805 h 43.5218 l 9.46101,-43.521805 c 1.12053,-6.590361 1.61149,-12.753303 1.47287,-18.500375 -0.1444,-5.747073 -0.9126,-10.933878 -2.31616,-15.560416 -0.9126,-4.274205 -2.44901,-8.479098 -4.62654,-12.61468 -2.10245,-4.204894 -5.00775,-7.884175 -8.72169,-11.037845 -3.78325,-3.15367 -8.40978,-5.712417 -13.87961,-7.676241 -5.39474,-2.027359 -11.97933,-3.043927 -19.75953,-3.043927 -7.78021,0 -14.89041,1.016568 -21.34215,3.043927 -6.44596,1.963824 -12.08907,4.522571 -16.92354,7.676241 -4.90378,3.15367 -9.25307,6.832951 -13.03632,11.037845 -3.71394,4.135582 -7.14486,8.340475 -10.29853,12.61468 -6.59036,10.090589 -11.45949,21.446111 -14.61316,34.060791 L 539.86655,267.03168 c -2.58763,13.45798 -2.449,24.91746 0.42164,34.37847 0.9126,4.34352 2.35082,8.51376 4.30886,12.51072 2.03314,3.99118 4.90956,7.56649 8.6235,10.72016 7.49719,7.21995 18.85271,10.82992 34.06079,10.82992 15.20808,0 27.82276,-3.60997 37.84404,-10.82992 4.90379,-3.15367 9.28196,-6.72898 13.14029,-10.72016 3.85256,-3.99696 7.39322,-8.1672 10.61621,-12.51072 6.58458,-10.02127 11.59811,-21.48076 15.02902,-34.37847 z M 783.15544,15.477405 H 736.6879 L 669.51358,331.9996 h 46.46753 l 23.65253,-111.95529 16.39793,-25.85894 3.88721,-6.4113 h 1.26494 v 6.4113 l 3.0497,137.81423 h 45.2026 L 805.96468,119.75645 871.03656,15.477405 h -45.20261 l -61.18466,105.543975 -3.46557,5.15215 h -1.6808 z m 0,0"
       stroke="#000000"
       stroke-width="43.0583"
       stroke-opacity="1"
       stroke-miterlimit="4"
       id="path21" />
    <g
       fill="#ffffff"
       fill-opacity="1"
       id="g24">
      <g
         transform="translate(174.81791,501.71121)"
         id="g23">
        <g
           id="g22">
          <path
             d="M 39.015625,-181.70312 H 68.71875 L 30.28125,0 H 61.734375 L 100.17188,-181.70312 H 129.875 l 6.98437,-32.32813 H 46.015625 Z m 0,0"
             id="path22" />
        </g>
      </g>
    </g>
    <g
       fill="#ffffff"
       fill-opacity="1"
       id="g27">
      <g
         transform="translate(261.0127,501.71121)"
         id="g26">
        <g
           id="g25">
          <path
             d="m 67.84375,0 h 31.453125 l 1.750005,-103.67188 c 6.78906,-4.07031 12.5664,-10.52343 17.32812,-19.35937 4.75781,-8.83203 8.30078,-18.58594 10.625,-29.26562 4.26953,-20.38282 3.29687,-35.76954 -2.92187,-46.15625 -6.21094,-10.38282 -18.72657,-15.57813 -37.54688,-15.57813 H 57.078125 L 11.640625,0 H 43.09375 l 18.9375,-90.265625 h 8.4375 z M 68.4375,-119.39063 81.828125,-182.875 c 2.132813,0 4.507813,0.19922 7.125,0.59375 2.625,0.38672 4.910156,1.64844 6.859375,3.78125 1.9375,2.13672 3.242188,5.33984 3.921875,9.60938 0.675785,4.27343 0.238281,10.1875 -1.3125,17.75 -1.554687,7.57421 -3.640625,13.44921 -6.265625,17.625 -2.617188,4.17968 -5.28125,7.33593 -8,9.46874 -2.71875,2.13672 -5.484375,3.44922 -8.296875,3.9375 -2.8125,0.48047 -5.289063,0.71875 -7.421875,0.71875 z m 0,0"
             id="path24" />
        </g>
      </g>
    </g>
    <g
       fill="#ffffff"
       fill-opacity="1"
       id="g30">
      <g
         transform="translate(360.3114,501.71121)"
         id="g29">
        <g
           id="g28">
          <path
             d="M 2.90625,0 H 33.484375 L 48.34375,-43.6875 H 78.625 L 75.421875,0 H 106 l 13.10938,-214.03125 H 80.65625 Z m 83.875,-144.4375 -5.25,67.5625 H 59.984375 l 23.296875,-67.5625 2.046875,-5.53125 H 87.0625 Z m 0,0"
             id="path27" />
        </g>
      </g>
    </g>
    <g
       fill="#ffffff"
       fill-opacity="1"
       id="g33">
      <g
         transform="translate(463.39572,501.71121)"
         id="g32">
        <g
           id="g31">
          <path
             d="M 108.90625,-73.390625 H 79.5 l -6.109375,29.421875 c -0.398437,1.75 -0.886719,3.257812 -1.46875,4.515625 -0.585937,1.261719 -1.070313,2.375 -1.453125,3.34375 -1.167969,2.136719 -2.71875,3.980469 -4.65625,5.53125 -1.9375,1.554687 -4.558594,2.328125 -7.859375,2.328125 -2.53125,0 -4.375,-0.773438 -5.53125,-2.328125 C 50.085938,-33.679688 49.40625,-38.144531 50.375,-43.96875 L 77.171875,-170.0625 c 0.382813,-1.55078 0.867187,-3.00391 1.453125,-4.35937 0.582031,-1.36329 1.066406,-2.53125 1.453125,-3.5 1.164063,-1.94532 2.671875,-3.74219 4.515625,-5.39063 1.84375,-1.64453 4.125,-2.46875 6.84375,-2.46875 3.300781,0 5.535156,0.77734 6.703125,2.32813 2.519535,3.10546 3.195315,7.57031 2.031255,13.39062 l -6.406255,29.40625 h 29.406255 l 6.40624,-29.40625 c 0.78125,-4.46875 1.11719,-8.64062 1.01563,-12.51562 -0.0937,-3.88282 -0.625,-7.37891 -1.59375,-10.48438 -0.58594,-2.91406 -1.60547,-5.78125 -3.0625,-8.59375 -1.44922,-2.8125 -3.4375,-5.28516 -5.96875,-7.42187 -2.52344,-2.13282 -5.625,-3.87891 -9.3125,-5.23438 -3.6875,-1.36328 -8.15234,-2.04687 -13.390625,-2.04687 -5.242187,0 -10.046875,0.68359 -14.421875,2.04687 -4.367188,1.35547 -8.199219,3.10156 -11.5,5.23438 -3.304688,2.13671 -6.214844,4.60937 -8.734375,7.42187 -2.523437,2.8125 -4.851563,5.67969 -6.984375,8.59375 -4.46875,6.79297 -7.773438,14.46094 -9.90625,23 L 18.921875,-43.96875 c -1.742187,9.125 -1.640625,16.890625 0.296875,23.296875 0.582031,2.90625 1.550781,5.71875 2.90625,8.4375 1.363281,2.71875 3.304688,5.148437 5.828125,7.28125 5.050781,4.8554688 12.71875,7.28125 23,7.28125 10.289063,0 18.835937,-2.4257812 25.640625,-7.28125 3.289062,-2.132813 6.25,-4.5625 8.875,-7.28125 2.625,-2.71875 5.003906,-5.53125 7.140625,-8.4375 4.457031,-6.800781 7.851565,-14.566406 10.187505,-23.296875 z m 0,0"
             id="path30" />
        </g>
      </g>
    </g>
    <g
       fill="#ffffff"
       fill-opacity="1"
       id="g36">
      <g
         transform="translate(558.32648,501.71121)"
         id="g35">
        <g
           id="g34">
          <path
             d="M 88.53125,-214.03125 H 57.078125 L 11.640625,0 H 43.09375 L 59.109375,-75.71875 70.1875,-93.1875 l 2.609375,-4.359375 h 0.875 V -93.1875 L 75.71875,0 h 30.57813 l -2.34375,-143.5625 43.98437,-70.46875 H 117.35938 L 76,-142.6875 l -2.328125,3.5 h -1.15625 z m 0,0"
             id="path33" />
        </g>
      </g>
    </g>
  </g>
  <g
     fill="#ffffff"
     fill-opacity="1"
     id="g39">
    <g
       transform="translate(661.708326, 501.711209)"
       id="g38">
      <g
         id="g37" />
    </g>
  </g>
</svg>
